<svg id="레이어_1" data-name="레이어 1" xmlns="http://www.w3.org/2000/svg" viewBox="0 0 731 179"><defs><style>.cls-1{fill:#e2e2e2;}.cls-2{opacity:0.83;}.cls-3{fill:#212120;}</style></defs><rect class="cls-1" width="731" height="179" rx="8.12"/><g class="cls-2"><path class="cls-3" d="M188.47,54.42c-7.12,0-12.47-4.86-12.47-11.83s5.35-11.83,12.47-11.83S201,35.62,201,42.59,195.66,54.42,188.47,54.42Zm0-3.41c5,0,8.7-3.51,8.7-8.42s-3.73-8.42-8.7-8.42a8.42,8.42,0,1,0,0,16.84Zm27.38,20.25v3.3H183.51V59.11h3.88V71.26Zm-1.51-8.47H210.4V27.42h3.94Z"/><path class="cls-3" d="M243.93,59.49c2.7-.11,5.29-.38,7.83-.7l.22,3c-10.15,1.57-21.71,1.73-30.3,1.73l-.48-3.35c2.05,0,4.32,0,6.64,0V35.89h-5.4V32.6h26.89v3.29h-5.4ZM231.67,60c2.76-.05,5.57-.16,8.43-.27V35.89h-8.43Zm35.21-9.88h-8.1V75.64h-3.94V27.31h3.94V46.8h8.1Z"/><path class="cls-3" d="M312.62,51.72V55h-43.8V51.72h19.82V44.16h3.94v7.56Zm-4.43-5.08c-7.13-1.24-14.58-5.13-17.6-10.8-3,5.72-10.37,9.56-17.61,10.8l-1.51-3.19c8.26-1.13,17.12-6.48,17.12-13.12V28.06h4v2.27c0,6.59,9,12,17.12,13.12ZM273.63,59.92H307V75.64h-3.94V63.16H273.63Z"/><path class="cls-3" d="M343.45,28.44h3.73V73.21h-3.73V49.56h-6.64c-.38,9.45-4.27,15.28-10.2,15.28-6.16,0-10.21-6.43-10.21-16.74,0-10.15,4.05-16.58,10.21-16.58,5.88,0,9.72,5.62,10.2,14.74h6.64ZM333.25,48.1c0-7.83-2.59-13-6.64-13S320,40.27,320,48.1c0,8,2.59,13.12,6.59,13.12S333.25,56.09,333.25,48.1Zm23.43-20.74V75.64H352.9V27.36Z"/><path class="cls-3" d="M418.78,54.25H399V75.64H395V54.25H375.2V51H388a70.7,70.7,0,0,0,2.43-16.9H378.71v-3.3h15.56v1.35A74,74,0,0,1,391.94,51H408A78.7,78.7,0,0,0,410,34.06H397.83v-3.3h16v2A82.89,82.89,0,0,1,412,51h6.8Z"/><path class="cls-3" d="M461.77,27.36V55.77h-3.95v-7H445.24a12.3,12.3,0,0,1-9.93,4.42c-7.13,0-12.37-4.75-12.37-11.55s5.24-11.56,12.37-11.56a12.38,12.38,0,0,1,10,4.48h12.52V27.36ZM443.89,41.62c0-4.7-3.67-8.16-8.58-8.16s-8.64,3.46-8.64,8.16,3.67,8.21,8.64,8.21S443.89,46.37,443.89,41.62Zm-14.25,16.9h32.13V75.64h-3.95V61.81H429.64Zm28.18-13.07V37.84H447a12.27,12.27,0,0,1,.6,3.78,12.59,12.59,0,0,1-.6,3.83Z"/><path class="cls-3" d="M512.74,54.25H492.92V75.64H489V54.25H469.16V51h12.75a70.7,70.7,0,0,0,2.43-16.9H472.67v-3.3h15.56v1.35A74,74,0,0,1,485.9,51H502a78.7,78.7,0,0,0,1.94-16.9H491.79v-3.3h16v2A83.32,83.32,0,0,1,505.94,51h6.8Z"/><path class="cls-3" d="M555.73,27.36V55.77h-4v-7H539.2a12.3,12.3,0,0,1-9.93,4.42c-7.13,0-12.37-4.75-12.37-11.55s5.24-11.56,12.37-11.56a12.38,12.38,0,0,1,10,4.48h12.52V27.36ZM537.85,41.62c0-4.7-3.67-8.16-8.58-8.16s-8.64,3.46-8.64,8.16,3.67,8.21,8.64,8.21S537.85,46.37,537.85,41.62ZM523.6,58.52h32.13V75.64h-4V61.81H523.6Zm28.18-13.07V37.84H541a12.27,12.27,0,0,1,.6,3.78,12.59,12.59,0,0,1-.6,3.83Z"/><path class="cls-3" d="M127.08,135.82a37.42,37.42,0,0,0,8.2-1l.49,3.29a44.34,44.34,0,0,1-10.58,1h-2V108.28H135v3.29h-7.88Zm14.47,0a46,46,0,0,0,11.23-1.19l.43,3.24A50.46,50.46,0,0,1,140,139.11h-2.38V108.28h13.07v3.29h-9.18Zm20.19-32.46v48.22H157.8V124.42h-9.56v-3.29h9.56V103.36Z"/><path class="cls-3" d="M193.5,125.66H171.14V106H193.5Zm-3.84-16.47H175v13.29h14.63ZM209.8,147.8V151H177.13V139.16h27.06v-5.23H177v-3.19h31.11v11.39H181v5.67Zm-1.72-19.6h-4V103.31h4Z"/><path class="cls-3" d="M221.3,137a124.72,124.72,0,0,0,20.85-1.45l.32,3.29A130.92,130.92,0,0,1,221,140.3h-3.56V121.51h17V111H217.31v-3.29h20.95V124.8h-17Zm33.92-33.75v48.39h-3.95V131h-10.2v-3.29h10.2v-9.94h-9.88v-3.29h9.88V103.25Z"/><path class="cls-3" d="M287.18,108.55c0,13.6-6.47,26-22,33.8L263,139.22c12.53-6.27,19.34-15.82,20.25-27.38h-18v-3.29Zm20.31,17.87h-7.94v25.16h-3.94V103.31h3.94v19.82h7.94Z"/><path class="cls-3" d="M353.28,128v3.29H309.49V128Zm-34.13,19.12h29.38v3.29H315.21V136.36h3.94Zm29.06-25.82H315.48V105.09h3.94v13h28.79Z"/><path class="cls-3" d="M393.83,108.11v31.22h-22V108.11Zm-18.19,3.24v24.79H390V111.35Zm32.72-8v48.38h-3.94V103.31Z"/><path class="cls-3" d="M455.56,103.36v28.41h-3.95v-7H439a12.31,12.31,0,0,1-9.94,4.42c-7.12,0-12.36-4.75-12.36-11.55s5.24-11.56,12.36-11.56a12.36,12.36,0,0,1,10,4.48h12.53v-7.18Zm-17.88,14.26c0-4.7-3.67-8.16-8.59-8.16s-8.63,3.46-8.63,8.16,3.67,8.21,8.63,8.21S437.68,122.37,437.68,117.62Zm-14.26,16.9h32.14v17.12h-3.95V137.81H423.42Zm28.19-13.07v-7.61h-10.8a12.27,12.27,0,0,1,.6,3.78,12.59,12.59,0,0,1-.6,3.83Z"/><path class="cls-3" d="M504.05,112.65H475.54v-3.24h12.25v-6h3.95v6h12.31Zm-14.31,20.68c-6.86,0-11.5-3.56-11.5-8.91s4.64-9,11.5-9,11.5,3.57,11.5,9S496.6,133.33,489.74,133.33Zm0-3.13c4.59,0,7.77-2.32,7.77-5.78s-3.18-5.88-7.77-5.88-7.78,2.37-7.78,5.88S485.09,130.2,489.74,130.2Zm-3,17.06H514.9v3.3H482.83V136.68h3.94Zm33.15-27.75v3.29h-7.23v16.8h-3.94V103.42h3.94v16.09Z"/><path class="cls-3" d="M546.11,126.85V132h14.21v10.86H531.64v5.07h30.13V151h-34V139.92h28.62v-4.86H527.64V132h14.53v-5.13H522.35v-3.18H566v3.18Zm-21.38-8.8c8.31-.76,16.74-4.54,17.17-9.83H526.35V105H562v3.24h-15.6c.43,5.29,8.85,9.07,17.12,9.83l-1.3,3c-7.67-.81-15.23-3.88-18.09-8.8-2.86,4.92-10.42,8-18.14,8.8Z"/><path class="cls-3" d="M594.6,108.55c0,13.82-6.58,26.13-22.51,33.91L570,139.27c13.07-6.26,19.82-15.87,20.63-27.48H572.14v-3.24Zm14.21-5.24v48.33h-3.94V103.31Z"/></g></svg>